<?xml version="1.0" encoding="UTF-8" standalone="no"?> <svg id="Layer_1" enable-background="new 0 0 512 512" height="512" viewBox="0 0 512 512" width="512" xmlns="http://www.w3.org/2000/svg"><path d="m407.758 504.5h-303.516c-5.523 0-10-4.477-10-10v-23.828h323.516v23.828c0 5.523-4.477 10-10 10z" fill="#a087d4"/><path d="m387.758 470.672v23.828c0 5.523-4.477 10-10 10h30c5.523 0 10-4.477 10-10v-23.828z" fill="#9378cf"/><g><path d="m20.423 415.854 73.82 54.824h323.516l73.82-54.824c7.545-5.603 10.171-15.704 6.31-24.273l-67.691-150.221c-2.388-5.3-6.965-9.299-12.538-10.955l-74.883-22.249h-86.776-86.776l-74.883 22.249c-5.573 1.656-10.15 5.655-12.538 10.955l-67.691 150.221c-3.861 8.569-1.235 18.67 6.31 24.273z" fill="#fff245"/><path d="m497.887 391.582-67.691-150.221c-2.388-5.301-6.965-9.299-12.538-10.955l-74.883-22.249s-16.428 0-30 0l74.883 22.249c5.573 1.656 10.15 5.655 12.538 10.955l67.691 150.221c3.861 8.568 1.235 18.669-6.31 24.273l-73.82 54.824h30l73.82-54.824c7.545-5.604 10.171-15.705 6.31-24.273z" fill="#ffe32b"/><g><path d="m334.149 269.531 53.444-80.258c3.755-4.75 5.156-10.945 3.81-16.849l-22.813-100.056c-.955-4.187-3.232-7.956-6.494-10.748l-57.613-49.314c-3.623-3.101-8.236-4.806-13.005-4.806h-70.954c-4.769 0-9.382 1.704-13.005 4.806l-57.615 49.314c-3.263 2.793-5.54 6.561-6.494 10.748l-22.812 100.056c-1.346 5.903.055 12.099 3.81 16.849l53.444 80.258z" fill="#a087d4"/></g><path d="m391.402 172.425-22.812-100.057c-.955-4.187-3.232-7.956-6.494-10.749l-57.613-49.314c-3.623-3.101-8.236-4.806-13.005-4.806h-30c4.769 0 9.382 1.705 13.005 4.806l57.613 49.314c3.263 2.793 5.54 6.561 6.494 10.749l22.812 100.056c1.346 5.903-.055 12.099-3.81 16.848l-53.444 80.259h30l53.444-80.259c3.755-4.749 5.156-10.944 3.81-16.847z" fill="#9378cf"/><path d="m417.758 470.672h-323.516v-191.141c0-5.523 4.477-10 10-10h303.516c5.523 0 10 4.477 10 10z" fill="#6947b5"/><path d="m407.758 269.531h-30c5.523 0 10 4.477 10 10v191.141h30v-191.141c0-5.522-4.477-10-10-10z" fill="#603ab5"/><path d="m311.957 371.046c0-30.873-25.151-55.889-56.139-55.791-30.385.097-55.378 24.938-55.771 55.23-.27 20.794 14.456 29.966 30.994 33.785v9.706c0 6.059 4.927 10.971 11.004 10.971h27.911c6.077 0 11.004-4.912 11.004-10.971v-9.706c16.388-3.784 30.997-12.825 30.997-33.224z" fill="#fff"/><path d="m281.821 157.551c-16.73-5.645-34.859-5.647-51.59-.004l-46.922 15.824v37.636c0 16.338 7.364 31.807 20.047 42.107 31.683 21.889 73.605 21.889 105.289 0 12.682-10.301 20.047-25.769 20.047-42.107v-37.641z" fill="#ffd8bf"/><path d="m504.725 388.5-67.691-150.22c-3.287-7.294-9.57-12.785-17.24-15.064l-38.23-11.359 12.115-18.193c5.037-6.526 6.872-14.855 5.036-22.907l-22.812-100.056c-1.303-5.717-4.475-10.966-8.93-14.779l-57.614-49.315c-4.979-4.26-11.329-6.607-17.882-6.607h-70.954c-6.553 0-12.903 2.347-17.882 6.608l-57.613 49.314c-4.455 3.813-7.627 9.062-8.93 14.779l-6.42 28.162c-2.155 9.455 12.469 12.789 14.625 3.334l6.42-28.162c.592-2.599 2.034-4.984 4.059-6.718l57.613-49.313c2.264-1.937 5.15-3.004 8.129-3.004h70.954c2.979 0 5.865 1.067 8.128 3.003l57.613 49.314c2.025 1.733 3.467 4.119 4.059 6.718l22.812 100.057c.846 3.708-.022 7.546-2.38 10.529-.126.16-.246.325-.359.495l-17.865 26.827c-.016.024-.032.047-.047.071l-33.306 50.017h-21.447c17.21-10.67 27.506-30.924 27.506-51.024v-27.195l14.979 5.055c9.189 3.094 13.985-11.113 4.796-14.213-23.916-8.07-47.832-16.14-71.748-24.21-18.054-6.092-38.332-6.093-56.385-.005-23.933 8.072-47.866 16.143-71.798 24.214-9.065 3.057-4.031 17.184 4.793 14.214l14.98-5.052v27.192c0 20.098 10.295 40.355 27.505 51.024h-21.446l-33.309-50.021c-.014-.021-.028-.042-.042-.063l-17.867-26.831c-.113-.17-.233-.335-.359-.495-2.358-2.983-3.226-6.821-2.38-10.53l7.545-33.093c2.155-9.455-12.469-12.789-14.625-3.334l-7.545 33.093c-1.835 8.052 0 16.381 5.036 22.907l12.115 18.193-38.23 11.359c-7.669 2.279-13.953 7.77-17.239 15.063l-67.693 150.221c-5.269 11.693-1.62 25.729 8.676 33.375l70.792 52.575v20.05c0 9.649 7.851 17.5 17.5 17.5h303.516c9.649 0 17.5-7.851 17.5-17.5v-20.05l70.792-52.575c10.294-7.646 13.943-21.682 8.674-33.375zm-313.916-177.493v-32.25l41.818-14.103c15.089-5.089 31.708-5.087 46.795.003l41.768 14.094v32.256c0 14.047-6.212 27.19-17.053 36.104-28.831 19.769-67.445 19.768-96.276 0-10.84-8.914-17.052-22.056-17.052-36.104zm-169.858 183.656 67.691-150.221c1.494-3.315 4.351-5.811 7.836-6.847l42.656-12.674 24.712 37.11h-59.604c-9.649 0-17.5 7.851-17.5 17.5v176.235l-61.848-45.933c-4.68-3.476-6.338-9.855-3.943-15.17zm386.807 102.337h-303.516c-1.378 0-2.5-1.122-2.5-2.5v-16.328h236.586c9.697 0 9.697-15 0-15h-236.586v-183.641c0-1.378 1.122-2.5 2.5-2.5h303.516c1.378 0 2.5 1.122 2.5 2.5v183.641h-31.954c-9.697 0-9.697 15 0 15h31.954v16.328c0 1.378-1.122 2.5-2.5 2.5zm79.348-87.167-61.848 45.933v-176.235c0-9.649-7.851-17.5-17.5-17.5h-59.604l24.712-37.111 42.656 12.674c3.486 1.037 6.343 3.532 7.837 6.848l67.691 150.221c2.394 5.315.736 11.694-3.944 15.17z"/><path d="m256.002 307.755c-.068 0-.14 0-.208 0-34.427.109-62.8 28.207-63.247 62.633-.25 19.254 10.698 33.146 30.994 39.603-.586 10.947 6.223 22.457 18.504 22.457h27.911c12.055 0 19.215-11.437 18.504-22.442 25.44-7.974 30.998-25.33 30.998-38.96-.001-34.575-28.933-63.291-63.456-63.291zm23.27 89.208c-3.402.786-5.812 3.815-5.812 7.308v9.707c0 1.914-1.572 3.471-3.504 3.471h-27.911c-1.932 0-3.504-1.557-3.504-3.471v-9.707c0-3.492-2.41-6.522-5.812-7.308-10.924-2.522-25.42-8.002-25.182-26.38.341-26.289 22.006-47.744 48.295-47.828 26.261 0 48.616 21.952 48.616 48.291-.001 8.629-2.612 20.704-25.186 25.917z"/><path d="m235.895 356.735c-6.867-6.848-17.458 3.776-10.591 10.622l12.655 12.617c6.864 6.846 17.459-3.774 10.591-10.622z"/><path d="m276.105 356.735-12.655 12.617c-6.869 6.848 3.726 17.467 10.591 10.622l12.655-12.617c6.867-6.847-3.723-17.469-10.591-10.622z"/></g></svg>