<svg xmlns="http://www.w3.org/2000/svg" viewBox="0 0 333.36 74.63"><defs><style>.cls-1{fill:#f47923;}.cls-2{fill:#e6e7e8;}.cls-3{fill:#414042;}</style></defs><g id="Layer_2" data-name="Layer 2"><g id="Layer_1-2" data-name="Layer 1"><path class="cls-1" d="M101.14,52.17A6,6,0,0,1,98.58,54a3.45,3.45,0,0,0-1.37.77H43.94V17h53a36.42,36.42,0,0,1,5,13.28c.16.81.1,1.65,1.23,2.06a5.28,5.28,0,0,1,3.54,5.05A19.3,19.3,0,0,1,101.14,52.17Z"/><path class="cls-2" d="M106.61,37.35a5.28,5.28,0,0,0-3.54-5.05c-1.13-.41-1.07-1.25-1.23-2.06a36.42,36.42,0,0,0-5-13.28A35.88,35.88,0,0,0,35.65,18l0,0a.26.26,0,0,1-.07.1,27.77,27.77,0,0,0-2.72,5.77c-.78,2.76-1.62,4.51-1.73,6.16,0,.6-.07,1.19-.11,1.69v0a1.4,1.4,0,0,1,0,.41q0,.51-.06,1c-.75,10.86,2.8,20.22,10.53,28.32a7.69,7.69,0,0,1-2.74-.82c-5.94-2.31-11.86-4.58-18.26-5.33A24.8,24.8,0,0,0,0,61.89a24.56,24.56,0,0,1,10.11-2.1c6.79.16,13.1,2.35,19.38,4.6,8.39,3,16.68,6.29,25.39,8.28,14.48,3.32,28.36,2,41.45-5.34.41-.22.92-.3,1.22-1.09a59.25,59.25,0,0,1-19,4.31c-.34,0-.73.15-1-.19.16-.59.75-.58,1.18-.73A35.45,35.45,0,0,0,96.21,56a5.35,5.35,0,0,1,1-1.19A3.45,3.45,0,0,1,98.58,54a6,6,0,0,0,2.56-1.82A19.3,19.3,0,0,0,106.61,37.35Zm-4.67,2.11a14.52,14.52,0,0,1-1.48,5c-2.82,6.08-5.29,6.91-11.12,3.61a22,22,0,0,0-10.16-2.83c-2.06-.06-4.12-.05-6.18-.1A24.31,24.31,0,0,1,62.21,42.4c-5.48-2.86-9.15-7-9.46-12.95,0-6.79,4.66-10.51,10.74-9.08A21.07,21.07,0,0,1,74.65,27.5c3.37,3.93,6.57,8,9.92,11.92,2.55,3,3.57,3.07,6.72.75,1-.73,2-1.44,3.07-2.14A13.19,13.19,0,0,1,98,36.23C100.91,35.36,102.23,36.46,101.94,39.46Z"/><path class="cls-1" d="M35.56,18.15a27.77,27.77,0,0,0-2.72,5.77c-.78,2.76-1.62,4.51-1.73,6.16,0,.6-.07,1.19-.11,1.69-.05-.65-.44-.68-1.17-.44a11.31,11.31,0,0,1-5.72.08c-2.57-.51-5.17-1.7-7.62.51-1.19-5.72,1.43-9.44,6.75-10a20.3,20.3,0,0,1,5.77.2,4,4,0,0,0,2.15,0c-1-.7-1.74-1.22-2.47-1.79a22.53,22.53,0,0,1-7.16-8.23A8.42,8.42,0,0,1,22,3.49c.46-.68.88-1,1.17.12A10.32,10.32,0,0,0,28,9.78a13.44,13.44,0,0,1,5.92,9C34,19.09,35.1,18.72,35.56,18.15Z"/><path class="cls-3" d="M82.82,42.47c-3.5-3.12-6.22-6.82-9-10.48a7.63,7.63,0,0,0-11-1.17A18.71,18.71,0,0,1,71.65,35c.93.8,2,1.4.54,2.85-.93.91.09,3.25,1.67,4.5s4,1.52,4.92.15c1.21-1.71,2.18-1.19,3.41-.32A3.29,3.29,0,0,0,82.82,42.47Zm-9.13-2.58c-.51-.1-.89-.35-.89-1s.28-1,.86-1a.94.94,0,0,1,1,1C74.7,39.58,74.25,39.78,73.69,39.89Z"/><path class="cls-3" d="M89.89,43.5a20.91,20.91,0,0,0,1.64,2.08,2.4,2.4,0,0,0,2.91.52,1.93,1.93,0,0,0,1.16-2.46c-.23-.73.11-1,.69-1.25a17.78,17.78,0,0,1,3.57-1c.51-.09,1.21-.08,1.14-.92a1.31,1.31,0,0,0-1.29-1.33,5.67,5.67,0,0,0-3.19.85C94.38,41.08,92.26,42.23,89.89,43.5Z"/><path class="cls-2" d="M35.63,18.05,30.94,33.23l0,0s0-.62.08-1.47v0c0-.5.07-1.09.11-1.69.11-1.65,1-3.4,1.73-6.16a27.77,27.77,0,0,1,2.72-5.77A.26.26,0,0,0,35.63,18.05Z"/><path class="cls-2" d="M138.74,67.39h-2.53L126,51.93V67.39h-2.54V48H126l10.19,15.43V48h2.53Z"/><path class="cls-2" d="M143.15,49.15a1.73,1.73,0,0,1,1.22-3,1.58,1.58,0,0,1,1.18.5,1.79,1.79,0,0,1,0,2.46,1.58,1.58,0,0,1-1.18.5A1.67,1.67,0,0,1,143.15,49.15Zm2.45,3V67.39h-2.54V52.13Z"/><path class="cls-2" d="M161.86,53.53a6.51,6.51,0,0,1,1.73,4.86v9h-2.51V58.76a4.92,4.92,0,0,0-1.14-3.5,4.07,4.07,0,0,0-3.12-1.21,4.19,4.19,0,0,0-3.19,1.25A5.12,5.12,0,0,0,152.45,59v8.44h-2.54V52.13h2.54V54.3a5,5,0,0,1,2.05-1.81,6.28,6.28,0,0,1,2.85-.64A6.18,6.18,0,0,1,161.86,53.53Z"/><path class="cls-2" d="M170.36,70.71a3.88,3.88,0,0,1-1,3,4.31,4.31,0,0,1-3,.94h-1.48V72.49h1.06a2.11,2.11,0,0,0,1.49-.42,1.91,1.91,0,0,0,.43-1.42V52.13h2.54Zm-2.47-21.56a1.82,1.82,0,0,1,0-2.46,1.73,1.73,0,0,1,2.43,0,1.79,1.79,0,0,1,0,2.46,1.73,1.73,0,0,1-2.43,0Z"/><path class="cls-2" d="M174.65,55.59a6.94,6.94,0,0,1,2.6-2.74,7.16,7.16,0,0,1,3.69-1,6.77,6.77,0,0,1,3.49.86,5.81,5.81,0,0,1,2.2,2.17V52.13h2.56V67.39h-2.56V64.55a5.9,5.9,0,0,1-2.25,2.21,6.64,6.64,0,0,1-3.46.88,6.89,6.89,0,0,1-3.68-1,7,7,0,0,1-2.59-2.81,8.82,8.82,0,0,1-1-4.13A8.6,8.6,0,0,1,174.65,55.59Zm11.28,1.13a4.87,4.87,0,0,0-1.88-2,5.07,5.07,0,0,0-2.6-.68,5.14,5.14,0,0,0-2.59.66A4.82,4.82,0,0,0,177,56.69a6.17,6.17,0,0,0-.7,3,6.27,6.27,0,0,0,.7,3,4.78,4.78,0,0,0,1.87,2,5,5,0,0,0,2.59.68,5.07,5.07,0,0,0,2.6-.68,4.8,4.8,0,0,0,1.88-2,6.84,6.84,0,0,0,0-6Z"/><path class="cls-2" d="M212.39,63.07h-8.47l-1.56,4.32h-2.67l7-19.3h2.92l7,19.3H214ZM211.67,61l-3.51-9.8L204.65,61Z"/><path class="cls-2" d="M219.69,55.59a6.87,6.87,0,0,1,2.63-2.74,8.4,8.4,0,0,1,8.5.39A6.46,6.46,0,0,1,233.23,57H230.5a3.93,3.93,0,0,0-1.52-2.2,4.68,4.68,0,0,0-2.8-.81,4.5,4.5,0,0,0-3.51,1.49,6.11,6.11,0,0,0-1.34,4.22A6.2,6.2,0,0,0,222.67,64a4.45,4.45,0,0,0,3.51,1.51,4.78,4.78,0,0,0,2.79-.78,4,4,0,0,0,1.53-2.23h2.73a6.71,6.71,0,0,1-2.45,3.74,7.35,7.35,0,0,1-4.6,1.41,7.55,7.55,0,0,1-3.86-1,6.8,6.8,0,0,1-2.63-2.76,8.8,8.8,0,0,1-.95-4.18A8.66,8.66,0,0,1,219.69,55.59Z"/><path class="cls-2" d="M236.6,55.59a6.94,6.94,0,0,1,2.6-2.74,7.16,7.16,0,0,1,3.69-1,6.7,6.7,0,0,1,3.48.86,5.67,5.67,0,0,1,2.2,2.17V52.13h2.57V67.39h-2.57V64.55a5.87,5.87,0,0,1-2.24,2.21,6.66,6.66,0,0,1-3.47.88,6.88,6.88,0,0,1-3.67-1,7,7,0,0,1-2.59-2.81,8.82,8.82,0,0,1-.95-4.13A8.6,8.6,0,0,1,236.6,55.59Zm11.28,1.13a4.94,4.94,0,0,0-1.88-2,5.09,5.09,0,0,0-2.61-.68,5.2,5.2,0,0,0-2.59.66,4.86,4.86,0,0,0-1.86,1.95,6.17,6.17,0,0,0-.7,3,6.27,6.27,0,0,0,.7,3,4.82,4.82,0,0,0,1.86,2,5,5,0,0,0,2.59.68,5.09,5.09,0,0,0,2.61-.68,4.86,4.86,0,0,0,1.88-2,6.93,6.93,0,0,0,0-6Z"/><path class="cls-2" d="M255.43,55.59a6.94,6.94,0,0,1,2.6-2.74,7.22,7.22,0,0,1,3.72-1,6.85,6.85,0,0,1,3.31.82,5.84,5.84,0,0,1,2.34,2.16V46.78H270V67.39H267.4V64.52a5.89,5.89,0,0,1-2.22,2.24,6.62,6.62,0,0,1-3.46.88,6.93,6.93,0,0,1-6.29-3.81,8.82,8.82,0,0,1-1-4.13A8.6,8.6,0,0,1,255.43,55.59Zm11.28,1.13a4.94,4.94,0,0,0-1.88-2,5.09,5.09,0,0,0-2.61-.68,5.2,5.2,0,0,0-2.59.66,4.86,4.86,0,0,0-1.86,1.95,6.17,6.17,0,0,0-.7,3,6.27,6.27,0,0,0,.7,3,4.82,4.82,0,0,0,1.86,2,5,5,0,0,0,2.59.68,5.09,5.09,0,0,0,2.61-.68,4.86,4.86,0,0,0,1.88-2,6.93,6.93,0,0,0,0-6Z"/><path class="cls-2" d="M288.1,60.71H275.9a4.81,4.81,0,0,0,5,4.79,4.69,4.69,0,0,0,2.74-.77,4,4,0,0,0,1.55-2.05h2.73a6.59,6.59,0,0,1-2.45,3.58,7.41,7.41,0,0,1-4.57,1.38,7.72,7.72,0,0,1-3.89-1,6.93,6.93,0,0,1-2.69-2.78,8.55,8.55,0,0,1-1-4.16,8.73,8.73,0,0,1,.95-4.15,6.57,6.57,0,0,1,2.66-2.74,7.9,7.9,0,0,1,3.94-1,7.64,7.64,0,0,1,3.84.94,6.48,6.48,0,0,1,2.58,2.61,7.69,7.69,0,0,1,.9,3.74A13.83,13.83,0,0,1,288.1,60.71Zm-3.17-4.56a4.27,4.27,0,0,0-1.75-1.59,5.42,5.42,0,0,0-2.43-.54,4.71,4.71,0,0,0-3.28,1.23,5,5,0,0,0-1.54,3.39h9.64A4.75,4.75,0,0,0,284.93,56.15Z"/><path class="cls-2" d="M313.06,52.59a5.33,5.33,0,0,1,2.2,2.21,7.38,7.38,0,0,1,.81,3.59v9h-2.51V58.76a5,5,0,0,0-1.13-3.5,4,4,0,0,0-3.05-1.21,4.06,4.06,0,0,0-3.15,1.27A5.19,5.19,0,0,0,305.06,59v8.41h-2.5V58.76a5,5,0,0,0-1.13-3.5,4,4,0,0,0-3.05-1.21,4.06,4.06,0,0,0-3.15,1.27A5.19,5.19,0,0,0,294.06,59v8.41h-2.53V52.13h2.53v2.2a5,5,0,0,1,2-1.84,6.1,6.1,0,0,1,2.8-.64,6.68,6.68,0,0,1,3.4.86,5.28,5.28,0,0,1,2.2,2.54,5,5,0,0,1,2.12-2.51,6.17,6.17,0,0,1,3.28-.89A6.6,6.6,0,0,1,313.06,52.59Z"/><path class="cls-2" d="M333.36,52.13l-9.19,22.45h-2.62l3-7.36-6.15-15.09h2.81L326,64.49l4.74-12.36Z"/><path class="cls-1" d="M142.05,28.32H122.21V22.05h13.51q-3.53-3.45-7.11-7.11T122,8.09a15.34,15.34,0,0,1-.13-2.19V4.31c0-.09,0-.3,0-.62s.05-.7.07-1.11,0-.84,0-1.28a10.37,10.37,0,0,0-.06-1.17h20.16V6.39H128.87l13.18,13.18Z"/><path class="cls-1" d="M167.82,28.12H147.66V16.77a9.24,9.24,0,0,0-1-.07,4.71,4.71,0,0,0-1.05.13V10.57h1.89V0h20.36V6.13H153.66V10.5h8.55v6.2h-8.55v5.22h14.16Z"/><path class="cls-1" d="M193.66,28.06H173.5V0h6.13V22h14Z"/><path class="cls-1" d="M219.44,6.13h-14a12.12,12.12,0,0,0-.07,2.16c0,.69.07,1.41.07,2.15h8.41V16.7h-8.35V28.12h-6.39l.19-.26v-11a3.58,3.58,0,0,0-2.15,0V10.77a.57.57,0,0,1,.42-.13h.62a4,4,0,0,0,.62,0,.52.52,0,0,0,.43-.29c0-1.74,0-3.47,0-5.19s-.09-3.42-.09-5.12h20.36Z"/><path class="cls-1" d="M253,28.12h-6.33V8.94c-.83.78-1.65,1.61-2.45,2.48s-1.64,1.76-2.51,2.67q.06,3.47,0,7t-.09,7h-6V14.75a2.31,2.31,0,0,0-.55-1.28,13.83,13.83,0,0,0-1.34-1.53l-1.6-1.57c-.54-.52-1-.95-1.33-1.3V28.12h-6.27V.13h5.81l8.29,8,8.41-8h6Z"/><path class="cls-1" d="M281.75,18.66h-2.81v9.66h-6.26V18.73h-7.76c-.13,1.52-.19,3.09-.17,4.69s.08,3.25.17,4.9h-6.27V18.79a9.67,9.67,0,0,0-2.74,0V12.53h2.61V.13h20.29V12.46a16,16,0,0,0,2.94,0Zm-9.13-6.2V6.33h-7.77v6.13Z"/><path class="cls-1" d="M307.46,28.25H284.69V22.18h2.54V6.26h-2.87V.2h23.1Zm-6.2-6.13V6.33H293.5V22.12Z"/><path class="cls-1" d="M333.36,28.12H313.2V16.77a9.24,9.24,0,0,0-1-.07,4.71,4.71,0,0,0-1.05.13V10.57H313V0h20.35V6.13H319.2V10.5h8.55v6.2H319.2v5.22h14.16Z"/></g></g></svg>